<?xml version="1.0" standalone="no"?>
<!DOCTYPE svg PUBLIC "-//W3C//DTD SVG 20010904//EN"
 "http://www.w3.org/TR/2001/REC-SVG-20010904/DTD/svg10.dtd">
<svg version="1.0" xmlns="http://www.w3.org/2000/svg"
 width="2400.000000pt" height="1254.000000pt" viewBox="0 0 2400.000000 1254.000000"
 preserveAspectRatio="xMidYMid meet">
<metadata>
Created by potrace 1.16, written by Peter Selinger 2001-2019
</metadata>
<g transform="translate(0.000000,1254.000000) scale(0.100000,-0.100000)"
fill="#000000" stroke="none">
<path d="M11655 11304 c-22 -2 -92 -9 -155 -14 -291 -27 -626 -92 -932 -181
l-178 -52 0 -2154 c0 -1721 3 -2153 13 -2147 18 11 4811 3014 4951 3102 l120
76 -55 49 c-367 331 -724 577 -1149 791 -553 279 -1075 435 -1720 512 -127 15
-785 28 -895 18z"/>
<path d="M8205 9596 c-147 -166 -342 -426 -462 -616 -427 -675 -676 -1395
-765 -2215 -18 -162 -18 -828 0 -990 89 -820 338 -1540 765 -2215 124 -197
351 -497 476 -631 l50 -54 1 3393 c0 1865 -2 3392 -4 3392 -3 0 -30 -29 -61
-64z"/>
<path d="M15106 7422 c-1425 -871 -1497 -916 -1479 -932 52 -49 3026 -2160
3033 -2153 17 17 133 343 180 505 85 290 146 605 182 933 18 162 18 828 0 990
-58 536 -192 1055 -384 1496 l-34 77 -1498 -916z"/>
<path d="M11103 4973 l-713 -436 0 -1527 0 -1527 178 -52 c298 -86 559 -138
889 -178 117 -14 230 -17 533 -18 405 0 489 5 790 51 967 147 1894 591 2620
1255 117 108 146 137 139 143 -68 53 -3712 2726 -3717 2725 -4 0 -328 -197
-719 -436z"/>
</g>
</svg>
